<?xml version="1.0" encoding="utf-8"?>
<svg version="1.1" xmlns:xlink="http://www.w3.org/1999/xlink" width="377px" height="43px" xmlns="http://www.w3.org/2000/svg">
  <defs>
    <mask fill="white" id="clip9">
      <path d="M 0 42.75  L 0.5 33.5  C 0.5 33.5  2.5 20.75  12.25 10.5  C 22 0.25  35 0  35 0  L 99 0  C 99 0  103 0.5  103.5 4.5  C 104 8.5  104.5 12  104.5 12  C 104.5 12  105.083850232678 19.570061816911  111 24.75  C 117.945312048432 30.8310304823344  127 30  127 30  L 250.5 30  C 250.5 30  258.913881748179 31.2027704170325  266 24.75  C 271.54431624799 19.7012273721219  272 12  272 12  C 272 12  272.25 9  273 4.5  C 273.75 0  280.5 0  280.5 0  L 345 0  C 345 0  357.998942546649 2.56673702975854  366 12  C 373.930887581385 21.3505325488311  376.5 33.5  376.5 33.5  L 376.5 42.75  L 0 42.75  Z " fill-rule="evenodd" />
    </mask>
  </defs>
  <g transform="matrix(1 0 0 1 -58 -222 )">
    <path d="M 0 42.75  L 0.5 33.5  C 0.5 33.5  2.5 20.75  12.25 10.5  C 22 0.25  35 0  35 0  L 99 0  C 99 0  103 0.5  103.5 4.5  C 104 8.5  104.5 12  104.5 12  C 104.5 12  105.083850232678 19.570061816911  111 24.75  C 117.945312048432 30.8310304823344  127 30  127 30  L 250.5 30  C 250.5 30  258.913881748179 31.2027704170325  266 24.75  C 271.54431624799 19.7012273721219  272 12  272 12  C 272 12  272.25 9  273 4.5  C 273.75 0  280.5 0  280.5 0  L 345 0  C 345 0  357.998942546649 2.56673702975854  366 12  C 373.930887581385 21.3505325488311  376.5 33.5  376.5 33.5  L 376.5 42.75  L 0 42.75  Z " fill-rule="nonzero" fill="#ffffff" stroke="none" transform="matrix(1 0 0 1 58 222 )" />
    <path d="M 0 42.75  L 0.5 33.5  C 0.5 33.5  2.5 20.75  12.25 10.5  C 22 0.25  35 0  35 0  L 99 0  C 99 0  103 0.5  103.5 4.5  C 104 8.5  104.5 12  104.5 12  C 104.5 12  105.083850232678 19.570061816911  111 24.75  C 117.945312048432 30.8310304823344  127 30  127 30  L 250.5 30  C 250.5 30  258.913881748179 31.2027704170325  266 24.75  C 271.54431624799 19.7012273721219  272 12  272 12  C 272 12  272.25 9  273 4.5  C 273.75 0  280.5 0  280.5 0  L 345 0  C 345 0  357.998942546649 2.56673702975854  366 12  C 373.930887581385 21.3505325488311  376.5 33.5  376.5 33.5  L 376.5 42.75  L 0 42.75  Z " stroke-width="2" stroke="#777777" fill="none" transform="matrix(1 0 0 1 58 222 )" mask="url(#clip9)" />
  </g>
</svg>